<?xml version="1.0" standalone="no"?>
<!DOCTYPE svg PUBLIC "-//W3C//DTD SVG 20010904//EN"
 "http://www.w3.org/TR/2001/REC-SVG-20010904/DTD/svg10.dtd">
<svg version="1.0" xmlns="http://www.w3.org/2000/svg"
 width="300.000000pt" height="96.000000pt" viewBox="0 0 300.000000 96.000000"
 preserveAspectRatio="xMidYMid meet">

<g transform="translate(0.000000,96.000000) scale(0.100000,-0.100000)"
fill="#000000" stroke="none">
<path d="M68 944 c-5 -4 -8 -156 -8 -339 l0 -331 26 -51 c34 -70 95 -130 160
-160 54 -25 142 -44 115 -25 -15 11 -7 32 13 32 7 0 12 -10 12 -22 -1 -21 3
-23 54 -22 30 0 72 3 93 8 31 6 37 11 32 26 -3 10 -1 21 5 25 5 3 10 -1 10 -9
0 -10 9 -16 25 -16 34 0 110 72 155 146 l35 58 0 336 0 335 -100 0 -100 0 0
-301 0 -300 -25 -37 c-47 -69 -157 -88 -236 -42 -66 39 -68 51 -69 381 0 161
-3 296 -8 300 -10 11 -180 18 -189 8z m107 -93 c3 -5 5 -129 5 -276 0 -244 2
-270 20 -305 30 -59 133 -135 113 -83 -4 11 -3 14 5 9 7 -4 12 -15 12 -25 0
-14 10 -20 43 -24 75 -10 182 7 200 32 6 10 20 20 29 24 9 3 28 23 42 44 25
38 25 39 29 323 4 270 9 316 32 279 12 -18 6 -509 -6 -554 -16 -60 -39 -93
-89 -129 -65 -46 -132 -69 -178 -61 -30 5 -44 2 -64 -14 -34 -27 -46 -27 -22
1 16 18 16 20 2 15 -21 -7 -93 39 -136 88 -68 77 -72 97 -72 389 0 145 3 266
7 269 9 10 21 9 28 -2z m145 -766 c0 -8 -4 -15 -10 -15 -5 0 -10 7 -10 15 0 8
5 15 10 15 6 0 10 -7 10 -15z"/>
<path d="M982 938 c-8 -8 -12 -53 -12 -135 0 -192 31 -241 156 -250 42 -4 64
-1 64 6 0 6 6 8 13 5 8 -3 30 13 50 36 l37 40 0 150 0 150 -45 0 -46 0 3 -129
c3 -115 1 -131 -16 -150 -25 -27 -79 -28 -106 -1 -18 18 -20 33 -20 149 0 125
-1 129 -22 135 -33 8 -43 7 -56 -6z m275 -159 c-5 -133 -14 -156 -70 -183 -58
-27 -94 -21 -138 23 l-39 39 0 121 c0 80 3 120 10 116 6 -4 10 -54 9 -123 l-1
-116 33 -29 c28 -26 37 -29 82 -24 39 3 56 11 74 31 21 25 23 36 23 152 0 89
3 123 11 118 8 -4 10 -45 6 -125z"/>
<path d="M1406 943 c-9 -9 -6 -366 3 -382 5 -7 22 -11 42 -9 l34 3 3 103 c1
56 4 102 7 102 2 0 52 -47 111 -105 59 -58 113 -105 121 -105 11 0 13 34 11
193 l-3 192 -42 3 -43 3 0 -95 c0 -53 -4 -96 -9 -96 -5 0 -56 45 -114 100 -58
55 -107 100 -109 100 -3 0 -8 -3 -12 -7z m294 -123 c4 -116 1 -190 -8 -190 -4
0 -59 49 -122 109 l-115 109 -3 -116 c-2 -70 1 -119 8 -126 17 -17 11 -33 -12
-31 -26 2 -34 20 -18 40 7 8 11 49 10 107 -2 132 -1 148 8 148 7 0 40 -31 180
-163 l52 -50 1 29 c1 38 6 174 8 198 3 43 9 6 11 -64z"/>
<path d="M2647 937 c-16 -11 -17 -32 -15 -197 l3 -185 43 -3 42 -3 0 75 c0
111 23 111 80 -1 l35 -68 48 -3 c26 -2 47 -1 47 2 0 3 -16 39 -36 79 l-36 73
36 36 c62 62 48 151 -28 188 -50 24 -190 29 -219 7z m211 -47 c31 -19 40 -44
33 -90 -1 -8 -3 -23 -4 -32 -1 -10 -9 -18 -18 -18 -9 0 -24 -11 -32 -23 -14
-22 -14 -28 10 -75 14 -28 23 -57 21 -64 -3 -7 -14 8 -26 35 -28 63 -77 107
-119 107 l-33 0 0 -70 c0 -40 -4 -70 -10 -70 -6 0 -10 47 -10 120 0 89 -3 120
-12 121 -10 0 -10 2 0 6 6 2 12 17 12 32 0 15 3 31 7 34 3 4 38 7 77 7 53 0
79 -5 104 -20z"/>
<path d="M2696 891 c-2 -3 -4 -36 -4 -72 l0 -67 65 4 c75 4 123 31 123 70 0
30 -32 63 -62 66 -83 5 -119 5 -122 -1z m142 -48 c6 -11 6 -28 1 -41 -8 -21
-14 -23 -61 -20 l-53 3 -3 38 -3 37 55 0 c43 0 57 -4 64 -17z"/>
<path d="M1852 748 l3 -193 85 -2 c97 -2 138 8 181 44 75 64 91 179 36 262
-46 69 -75 81 -200 81 l-107 0 2 -192z m230 137 c72 -49 88 -169 32 -242 -34
-45 -84 -65 -159 -61 l-60 3 -3 163 -2 162 77 0 c67 0 84 -4 115 -25z"/>
<path d="M1907 892 c-3 -4 -5 -72 -6 -151 l-2 -144 82 6 c74 5 85 8 111 35 72
71 53 199 -34 240 -42 20 -143 29 -151 14z m137 -42 c55 -20 73 -112 33 -171
-21 -31 -27 -34 -80 -37 l-57 -3 0 111 0 110 39 0 c22 0 51 -4 65 -10z"/>
<path d="M2290 751 c0 -185 6 -219 32 -193 6 6 9 78 8 181 l-1 171 93 0 c57 0
88 -4 79 -9 -7 -5 -44 -7 -81 -4 -78 5 -77 6 -72 -83 l4 -54 64 0 c85 0 82
-18 -3 -22 l-68 -3 0 -65 0 -65 65 -2 c36 -1 74 -2 84 -2 11 -1 17 -4 14 -7
-7 -6 -51 -12 -100 -13 -29 -1 -36 -4 -32 -16 7 -18 51 -20 57 -2 3 9 9 9 28
0 13 -7 36 -12 52 -11 25 0 27 3 27 45 l0 44 -55 -6 c-82 -11 -105 -2 -105 40
l0 34 68 3 67 3 0 35 0 35 -65 5 c-65 5 -65 5 -68 38 l-3 32 80 0 81 0 0 40 0
40 -125 0 -125 0 0 -189z"/>
<path d="M1044 402 c-85 -40 -137 -145 -114 -231 13 -51 60 -106 114 -133 33
-17 51 -19 101 -15 33 3 75 11 93 17 l32 12 0 84 0 84 -65 0 -65 0 0 -35 c0
-24 5 -35 15 -35 8 0 15 -9 15 -20 0 -16 -7 -20 -30 -20 -106 0 -158 128 -79
194 35 30 92 35 126 11 20 -14 24 -13 49 8 17 15 25 30 21 40 -19 50 -142 72
-213 39z m106 -27 c-8 -2 -31 -6 -51 -10 -23 -3 -51 -19 -74 -41 -30 -28 -36
-40 -33 -64 3 -17 1 -30 -4 -30 -16 0 -7 -58 15 -90 34 -52 86 -74 152 -65
l55 6 0 50 c0 46 -2 49 -25 49 -14 0 -25 5 -25 11 0 6 12 9 28 7 25 -3 27 -6
30 -60 3 -50 0 -58 -19 -68 -38 -21 -132 -8 -173 24 -120 91 -54 289 94 285
25 -1 38 -3 30 -4z m60 -15 c0 -13 -11 -13 -30 0 -12 8 -11 10 8 10 12 0 22
-4 22 -10z"/>
<path d="M1387 413 c-16 -4 -17 -20 -15 -196 l3 -192 40 0 40 0 5 76 c5 69 7
75 23 70 11 -4 35 -38 55 -76 36 -68 38 -70 80 -73 25 -2 42 1 42 8 0 6 -16
42 -35 80 -34 68 -35 70 -14 80 28 16 59 70 59 105 0 37 -31 89 -62 106 -22
12 -184 21 -221 12z m213 -60 c33 -28 33 -23 18 -120 -1 -7 -10 -13 -20 -13
-10 0 -18 -6 -18 -14 0 -8 -6 -16 -12 -18 -9 -3 -5 -21 15 -61 29 -60 31 -67
19 -67 -4 0 -16 17 -27 38 -33 62 -80 102 -120 102 l-35 0 0 -72 c0 -85 -9
-87 -11 -2 -1 32 -5 69 -10 80 -4 12 -5 25 -1 29 11 11 10 65 -1 65 -7 0 -7 4
1 12 7 7 12 25 12 40 l0 28 79 0 c71 0 83 -3 111 -27z"/>
<path d="M1427 364 c-3 -5 -4 -38 -3 -74 l3 -65 63 0 c45 0 68 5 83 18 11 9
24 17 29 17 17 0 8 67 -12 85 -21 19 -153 35 -163 19z m141 -47 c15 -12 16
-39 0 -55 -7 -7 -34 -12 -60 -12 l-48 0 0 39 c0 33 4 40 23 44 27 5 68 -3 85
-16z"/>
<path d="M1872 378 c-11 -24 -49 -107 -86 -185 -36 -78 -66 -146 -66 -152 0
-6 18 -11 40 -11 33 0 42 4 52 25 11 24 16 25 88 25 72 0 77 -1 88 -25 10 -21
18 -25 57 -25 25 0 45 2 45 4 0 2 -31 73 -70 158 -117 255 -117 255 -148 186z
m103 -172 c36 -77 63 -142 60 -144 -2 -3 -10 7 -16 22 -12 26 -14 26 -116 26
-101 0 -104 -1 -113 -25 -5 -14 -14 -25 -19 -25 -12 0 -1 27 69 168 27 57 50
108 50 113 0 32 27 -11 85 -135z"/>
<path d="M1853 223 l-41 -88 85 -3 c47 -2 87 -1 90 1 6 7 -75 177 -84 177 -5
0 -28 -39 -50 -87z m77 -45 c0 -13 -8 -18 -30 -18 -34 0 -37 8 -14 52 l16 32
14 -25 c7 -13 13 -32 14 -41z"/>
<path d="M2160 220 c0 -162 2 -190 15 -191 63 -5 60 -9 65 66 l5 70 68 3 67 3
0 39 0 39 -67 3 -68 3 0 35 0 35 80 5 80 5 3 38 3 37 -125 0 -126 0 0 -190z
m209 154 c2 -2 -32 -4 -77 -4 l-82 0 0 -35 c0 -21 5 -35 12 -35 9 0 9 -3 0
-12 -7 -7 -12 -25 -12 -40 l0 -28 71 0 c44 0 68 -4 64 -10 -3 -5 -35 -10 -71
-10 l-64 0 0 -72 c0 -39 -2 -69 -5 -66 -8 8 -17 278 -10 299 4 11 18 19 38 21
38 4 130 -1 136 -8z"/>
<path d="M2500 221 c0 -203 0 -204 53 -194 25 5 26 9 29 72 l3 66 68 3 67 3 0
39 0 39 -67 3 -68 3 -3 38 -3 37 79 0 c86 0 94 5 85 53 l-5 27 -119 0 -119 0
0 -189z m209 153 c2 -2 -32 -4 -77 -4 l-81 0 0 -75 0 -75 65 0 c36 0 64 -4 64
-10 0 -6 -28 -10 -65 -10 l-65 0 0 -70 c0 -41 -4 -70 -10 -70 -7 0 -10 55 -8
158 l3 157 35 5 c37 6 131 2 139 -6z"/>
</g>
</svg>
